# AST/ASF file generated using VICON BodyLanguage
# -----------------------------------------------
:version 1.10
:name VICON
:units
  mass 1.0
  length 0.45
  angle deg
:documentation
   .ast/.asf automatically generated from VICON data using
   VICON BodyBuilder and BodyLanguage model FoxedUp or BRILLIANT.MOD
:root
   order TX TY TZ RX RY RZ
   axis XYZ
   position 0 0 0  
   orientation 0 0 0 
:bonedata
  begin
     id 1 
     name lhipjoint
     direction 0.635376 -0.686425 0.353719 
     length 2.47244 
     axis 0 0 0  XYZ
  end
  begin
     id 2 
     name lfemur
     direction 0.34202 -0.939693 0  
     length 7.25268  
     axis 0 0 20  XYZ
    dof rx ry rz
    limits (-160.0 20.0)
           (-70.0 70.0)
           (-60.0 70.0)
  end
  begin
     id 3 
     name ltibia
     direction 0.34202 -0.939693 0   
     length 7.6767   
     axis 0 0 20   XYZ
    dof rx
    limits (-10.0 170.0)
  end
  begin
     id 4 
     name lfoot
     direction 0.0803374 -0.220725 0.972022   
     length 2.22945   
     axis -90 7.62852e-016 20   XYZ
    dof rx rz
    limits (-45.0 90.0)
           (-70.0 20.0)
  end
  begin
     id 5 
     name ltoes
     direction 1.53579e-011 -4.21994e-011 1   
     length 1.11848   
     axis -90 7.62852e-016 20   XYZ
    dof rx
    limits (-90.0 20.0)
  end
  begin
     id 6 
     name rhipjoint
     direction -0.664428 -0.664335 0.342336   
     length 2.55466  
     axis 0 0 0  XYZ 
  end
  begin
     id 7 
     name rfemur
     direction -0.34202 -0.939693 0   
     length 6.83172   
     axis 0 0 -20   XYZ
    dof rx ry rz
    limits (-160.0 20.0)
           (-70.0 70.0)
           (-70.0 60.0)
  end
  begin
     id 8 
     name rtibia
     direction -0.34202 -0.939693 0   
     length 7.62692   
     axis 0 0 -20   XYZ
    dof rx
    limits (-10.0 170.0)
 end
 begin
     id 9 
     name rfoot
     direction -0.0949276 -0.260811 0.960711   
     length 2.19684  
     axis -90 -7.62852e-016 -20   XYZ
    dof rx rz
    limits (-45.0 90.0)
           (-20.0 70.0)
  end
  begin
     id 10 
     name rtoes
     direction -1.53543e-011 -4.2183e-011 1   
     length 1.09848   
     axis -90 -7.62852e-016 -20   XYZ
    dof rx
    limits (-90.0 20.0)
  end
  begin
     id 11 
     name lowerback
     direction 0.0118782 0.999815 -0.0151555   
     length 2.15772   
     axis 0 0 0   XYZ
    dof rx ry rz
    limits (-20.0 45.0)
           (-30.0 30.0)
           (-30.0 30.0)
  end
  begin
     id 12 
     name upperback
     direction 0.00130825 0.999065 0.0432113   
     length 2.14863   
     axis 0 0 0   XYZ
    dof rx ry rz
    limits (-20.0 45.0)
           (-30.0 30.0)
           (-30.0 30.0)
  end
  begin
     id 13 
     name thorax
     direction -0.00347005 0.998773 0.0494011   
     length 2.14936   
     axis 0 0 0   XYZ
    dof rx ry rz
    limits (-20.0 45.0)
           (-30.0 30.0)
           (-30.0 30.0)
  end
  begin
     id 14 
     name lowerneck
     direction -0.0262159 0.99424 0.103921   
     length 1.69373   
     axis 0 0 0   XYZ
    dof rx ry rz
    limits (-20.0 45.0)
           (-30.0 30.0)
           (-30.0 30.0)
  end
  begin
     id 15 
     name upperneck
     direction 0.0353511 0.977394 -0.20845   
     length 1.70857   
     axis 0 0 0   XYZ
    dof rx ry rz
    limits (-20.0 45.0)
           (-30.0 30.0)
           (-30.0 30.0)
  end
  begin
     id 16
     name head
     direction 0.0139214 0.996594 -0.0812836  
     length 1.72777  
     axis 0 0 0   XYZ
    dof rx ry rz
    limits (-20.0 45.0)
           (-30.0 30.0)
           (-30.0 30.0)
  end
  begin
     id 17 
     name lclavicle
     direction 0.841247 0.537205 -0.0609508  
     length 3.55371  
     axis 0 0 0   XYZ
    dof ry rz
    limits (-20.0 10.0)
           (0.0 20.0)
  end
  begin
     id 18 
     name lhumerus
     direction 1 -4.48964e-011 1.60116e-018   
     length 4.91377   
     axis -180 -30 -90   XYZ
    dof rx ry rz
    limits (-60.0 90.0)
           (-90.0 90.0)
           (-90.0 90.0)
  end
  begin
     id 19
     name lradius
     direction 1 -4.48989e-011 -8.93847e-027   
     length 3.00291   
     axis -180 -30 -90   XYZ
    dof rx
    limits (-10.0 170.0)
  end
  begin
     id 20
     name lwrist
     direction 1 -4.48932e-011 -7.31504e-027   
     length 1.50145   
     axis 5.74121e-015 90 90   XYZ
    dof ry
    limits (-180.0 0.0)
 end
  begin
     id 21 
     name lhand
     direction 1 -4.48971e-011 -1.46301e-026   
     length 0.450922   
     axis 9.33524e-015 90 90   XYZ
    dof rx rz
    limits (-90.0 90.0)
           (-45.0 45.0)
  end
  begin
     id 22 
     name lfingers
     direction 1 -4.49039e-011 -2.92602e-026   
     length 0.363545   
     axis 1.86705e-014 90 90   XYZ
    dof rx
    limits (0.0 90.0)
  end
  begin
     id 23
     name lthumb
     direction 0.707107 -6.34941e-011 0.707107   
     length 0.52198   
     axis -90 45 2.85299e-015   XYZ
    dof rx rz
    limits (-45.0 45.0)
           (-45.0 45.0)
  end
  begin
     id 24 
     name rclavicle
     direction -0.825079 0.56158 -0.0622297   
     length 3.39909  
     axis 0 0 0   XYZ 
    dof ry rz
    limits (-10.0 20.0)
           (-20.0 0.0)
  end
  begin
     id 25 
     name rhumerus
     direction -1 -4.48965e-011 1.61691e-027  
     length 4.86725   
     axis -180 30 90   XYZ
    dof rx ry rz
    limits (-90.0 60.0)
           (-90.0 90.0)
           (-90.0 90.0)
  end
  begin
     id 26 
     name rradius
     direction -1 -4.48964e-011 -2.25776e-027   
     length 3.17144   
     axis -180 30 90   XYZ
    dof rx
    limits (-10.0 170.0)
  end
  begin
     id 27 
     name rwrist
     direction -1 -4.48961e-011 -7.31504e-027   
     length 1.58572   
     axis 5.74121e-015 -90 -90   XYZ
    dof ry
    limits (-180.0 0.0)
  end
  begin
     id 28
     name rhand
     direction -1 -4.49013e-011 -1.46301e-026   
     length 0.419368   
     axis 9.33524e-015 -90 -90   XYZ
    dof rx rz
    limits (-90.0 90.0)
           (-45.0 45.0)
  end
  begin
     id 29
     name rfingers
     direction -1 -4.489e-011 -2.92602e-026   
     length 0.338105   
     axis 1.86705e-014 -90 -90   XYZ
    dof rx
    limits (0.0 90.0)
  end
  begin
     id 30
     name rthumb
     direction -0.707107 -6.35022e-011 0.707107   
     length 0.485453   
     axis -90 -45 -2.85299e-015   XYZ
    dof rx rz
    limits (-45.0 45.0)
           (-45.0 45.0)
  end
:hierarchy
  begin
    root lhipjoint rhipjoint lowerback
    lhipjoint lfemur
    lfemur ltibia
    ltibia lfoot
    lfoot ltoes
    rhipjoint rfemur
    rfemur rtibia
    rtibia rfoot
    rfoot rtoes
    lowerback upperback
    upperback thorax
    thorax lowerneck lclavicle rclavicle
    lowerneck upperneck
    upperneck head
    lclavicle lhumerus
    lhumerus lradius
    lradius lwrist
    lwrist lhand lthumb
    lhand lfingers
    rclavicle rhumerus
    rhumerus rradius
    rradius rwrist
    rwrist rhand rthumb
    rhand rfingers
  end

#!OML:ASF H:\Swim 2\Project 1\Capture day 1\Session 1\male.ASF
:FULLY-SPECIFIED
:DEGREES
1154
root 3.57016 13.7646 10.1301 65.6176 3.31409 172.136
lowerback 33.434 -6.36929 9.72519
upperback 8.28361 -4.65399 -14.1104
thorax -10.5708 -1.48313 -19.7914
lowerneck -4.27098 -6.78285 6.28348
upperneck 28.4306 -11.6404 15.6141
head 10.5787 -1.21746 3.73019
rclavicle -5.88403e-014 1.44914e-013
rhumerus -1142.18 -25.3689 737.706
rradius 85.0299
rwrist 358.827
rhand -51.817 30.5205
rfingers 7.12502
rthumb -24.3321 2.04502
lclavicle -5.88403e-014 1.44914e-013
lhumerus -1318.46 -30.267 -115.562
lradius 29.5026
lwrist -1318.19
lhand -18.6946 14.4441
lfingers 7.12502
lthumb 7.59998 44.2875
rfemur 39.0443 14.7102 22.7329
rtibia 24.8904
rfoot 40.3048 7.66402
rtoes 15.9538
lfemur 21.7934 -6.41304 -33.9501
ltibia 22.3663
lfoot 8.92348 28.4114
ltoes 41.4423
1155
root 3.60985 13.7574 10.0911 65.0297 3.31374 171.961
lowerback 34.0421 -6.52952 9.44905
upperback 8.33659 -4.87433 -13.7891
thorax -10.7429 -1.56798 -19.0687
lowerneck -4.55983 -6.3447 5.51623
upperneck 28.9645 -11.0433 15.1823
head 10.7962 -1.07577 3.76442
rclavicle 1.90833e-014 1.31198e-014
rhumerus -1142.39 -24.889 736.166
rradius 85.1968
rwrist 358.236
rhand -52.0493 30.8405
rfingers 7.12502
rthumb -24.5548 2.39502
lclavicle 1.90833e-014 1.31198e-014
lhumerus -1319.64 -30.9472 -114.357
lradius 29.4294
lwrist -1319.58
lhand -18.5705 14.7267
lfingers 7.12502
lthumb 7.71969 44.5658
rfemur 38.8305 15.0974 23.4346
rtibia 24.7334
rfoot 39.3431 7.60454
rtoes 16.2087
lfemur 23.1749 -6.0138 -33.6311
ltibia 22.9104
lfoot 9.76871 27.2601
ltoes 40.7463
1156
root 3.64793 13.7488 10.0551 64.516 3.29618 171.787
lowerback 34.6099 -6.66891 9.15159
upperback 8.36612 -5.07693 -13.4422
thorax -10.9042 -1.64474 -18.3184
lowerneck -4.87564 -5.91047 4.74931
upperneck 29.5228 -10.4232 14.6912
head 11.0233 -0.931426 3.78333
rclavicle -2.22639e-014 -2.38542e-015
rhumerus -1142.52 -24.31 734.574
rradius 85.3504
rwrist 357.736
rhand -52.2563 31.0587
rfingers 7.12502
rthumb -24.7532 2.64039
lclavicle -2.22639e-014 -2.38542e-015
lhumerus -1320.82 -31.6262 -113.1
lradius 29.3403
lwrist -1320.93
lhand -18.3688 15.001
lfingers 7.12502
lthumb 7.91436 44.8329
rfemur 38.4514 15.5041 24.1118
rtibia 24.6014
rfoot 38.2952 7.4312
rtoes 16.5484
lfemur 24.5483 -5.57951 -33.3041
ltibia 23.4423
lfoot 10.7971 25.9044
ltoes 40.0194
1157
root 3.68402 13.7391 10.0228 64.0847 3.26116 171.623
lowerback 35.1317 -6.7888 8.84227
upperback 8.37092 -5.2621 -13.0717
thorax -11.0568 -1.71493 -17.5504
lowerneck -5.22372 -5.47626 3.99534
upperneck 30.093 -9.77411 14.1498
head 11.2572 -0.780848 3.78806
rclavicle 7.95139e-015 -5.46658e-014
rhumerus -1142.62 -23.6278 732.946
rradius 85.5173
rwrist 357.278
rhand -52.4374 31.1631
rfingers 7.12502
rthumb -24.9267 2.76869
lclavicle 7.95139e-015 -5.46658e-014
lhumerus -1322.04 -32.3096 -111.771
lradius 29.2428
lwrist -1322.24
lhand -18.1208 15.2553
lfingers 7.12502
lthumb 8.15375 45.078
rfemur 37.9088 15.9149 24.7438
rtibia 24.5029
rfoot 37.1729 7.16316
rtoes 16.9324
lfemur 25.9093 -5.13146 -32.9778
ltibia 23.9393
lfoot 11.9732 24.4164
ltoes 39.3266
1158
root 3.71716 13.729 9.99516 63.7606 3.21081 171.465
lowerback 35.5708 -6.88903 8.56618
upperback 8.35311 -5.41946 -12.6969
thorax -11.1911 -1.7762 -16.8225
lowerneck -5.59012 -5.04809 3.29075
upperneck 30.642 -9.10519 13.58
head 11.4839 -0.623906 3.77806
rclavicle -1.27222e-014 -1.51076e-014
rhumerus -1142.73 -22.8437 731.309
rradius 85.7175
rwrist 356.833
rhand -52.5815 31.2526
rfingers 7.12502
rthumb -25.0648 2.87741
lclavicle -1.27222e-014 -1.51076e-014
lhumerus -1323.32 -32.9616 -110.36
lradius 29.1409
lwrist -1323.5
lhand -17.8053 15.4691
lfingers 7.12502
lthumb 8.45822 45.2798
rfemur 37.1904 16.3273 25.3099
rtibia 24.4329
rfoot 35.9798 6.79619
rtoes 17.411
lfemur 27.2324 -4.68075 -32.6511
ltibia 24.3864
lfoot 13.2553 22.8446
ltoes 38.7073
1159
root 3.7469 13.7193 9.97264 63.5294 3.15347 171.318
lowerback 35.9305 -6.98021 8.35709
upperback 8.32058 -5.55059 -12.3331
thorax -11.3086 -1.82989 -16.171
lowerneck -5.95823 -4.62751 2.652
upperneck 31.147 -8.42226 13.0039
head 11.6929 -0.459879 3.75704
rclavicle 4.77083e-015 -4.41302e-014
rhumerus -1142.89 -21.9537 729.68
rradius 85.9296
rwrist 356.411
rhand -52.7261 31.3961
rfingers 7.12502
rthumb -25.2033 3.04031
lclavicle 4.77083e-015 -4.41302e-014
lhumerus -1324.68 -33.5636 -108.855
lradius 29.0407
lwrist -1324.67
lhand -17.5016 15.6359
lfingers 7.12502
lthumb 8.75136 45.4345
rfemur 36.333 16.7175 25.801
rtibia 24.3768
rfoot 34.7328 6.38898
rtoes 17.8751
lfemur 28.5366 -4.2407 -32.3287
ltibia 24.768
lfoot 14.7108 21.0905
ltoes 37.8889
1160
root 3.77305 13.7107 9.95603 63.4015 3.07595 171.183
lowerback 36.1887 -7.06108 8.21574
upperback 8.27604 -5.65718 -11.992
thorax -11.4032 -1.87776 -15.6082
lowerneck -6.31451 -4.21359 2.08076
upperneck 31.6036 -7.72657 12.4274
head 11.8802 -0.28811 3.72613
rclavicle 1.11319e-014 -1.55847e-013
rhumerus -1143.12 -20.9951 728.076
rradius 86.1564
rwrist 356.053
rhand -52.8525 31.6604
rfingers 7.12502
rthumb -25.3245 3.32174
lclavicle 1.11319e-014 -1.55847e-013
lhumerus -1326.12 -34.1073 -107.255
lradius 28.9458
lwrist -1325.75
lhand -17.2478 15.7565
lfingers 7.12502
lthumb 8.99627 45.5447
rfemur 35.355 17.0857 26.1917
rtibia 24.3064
rfoot 33.4525 5.93693
rtoes 18.3491
lfemur 29.8034 -3.83348 -32.0447
ltibia 25.081
lfoot 16.2636 19.2203
ltoes 36.9596
1161
root 3.79557 13.7037 9.94545 63.3727 2.97598 171.063
lowerback 36.3427 -7.13476 8.13372
upperback 8.22126 -5.74738 -11.6736
thorax -11.4754 -1.92403 -15.1228
lowerneck -6.654 -3.8026 1.56922
upperneck 32.0202 -7.01374 11.8439
head 12.048 -0.107181 3.68466
rclavicle 1.59028e-015 -4.92986e-014
rhumerus -1143.37 -19.9996 726.501
rradius 86.3735
rwrist 355.823
rhand -52.9853 32.0528
rfingers 7.12502
rthumb -25.4517 3.7322
lclavicle 1.59028e-015 -4.92986e-014
lhumerus -1327.64 -34.6095 -105.546
lradius 28.8617
lwrist -1326.71
lhand -17.0683 15.8402
lfingers 7.12502
lthumb 9.16946 45.6209
rfemur 34.2788 17.4074 26.4579
rtibia 24.1944
rfoot 32.1962 5.50041
rtoes 18.7381
lfemur 31.0254 -3.47763 -31.8206
ltibia 25.3274
lfoot 17.8734 17.174
ltoes 35.8068
1162
root 3.81466 13.6989 9.94209 63.4354 2.84933 170.956
lowerback 36.3983 -7.20236 8.10294
upperback 8.15615 -5.82554 -11.376
thorax -11.5287 -1.97083 -14.7041
lowerneck -6.97204 -3.39657 1.08897
upperneck 32.4074 -6.28594 11.2575
head 12.201 0.0807011 3.63938
rclavicle 1.11319e-014 4.29375e-014
rhumerus -1143.64 -18.9849 724.957
rradius 86.5764
rwrist 355.753
rhand -53.1654 32.554
rfingers 7.12502
rthumb -25.6241 4.25806
lclavicle 1.11319e-014 4.29375e-014
lhumerus -1329.25 -35.0825 -103.708
lradius 28.7773
lwrist -1327.59
lhand -16.977 15.9044
lfingers 7.12502
lthumb 9.25758 45.6811
rfemur 33.1384 17.685 26.606
rtibia 24.0151
rfoot 31.0284 5.05094
rtoes 19.0776
lfemur 32.1896 -3.13368 -31.6412
ltibia 25.5192
lfoot 19.5447 14.9054
ltoes 34.3099
1163
root 3.83074 13.6963 9.9455 63.5851 2.68946 170.861
lowerback 36.3638 -7.26238 8.07366
upperback 8.07847 -5.90625 -11.0781
thorax -11.5643 -2.02363 -14.2896
lowerneck -7.29629 -2.98529 0.6078
upperneck 32.8067 -5.52286 10.6427
head 12.3608 0.280488 3.59054
rclavicle -1.90833e-014 5.64548e-014
rhumerus -1143.85 -17.9816 723.423
rradius 86.7696
rwrist 355.831
rhand -53.3932 33.0895
rfingers 7.12502
rthumb -25.8424 4.82516
lclavicle -1.90833e-014 5.64548e-014
lhumerus -1330.94 -35.5772 -101.736
lradius 28.7077
lwrist -1328.41
lhand -16.9421 15.9759
lfingers 7.12502
lthumb 9.29121 45.7512
rfemur 31.9562 17.9084 26.6315
rtibia 23.7505
rfoot 30.0049 4.63219
rtoes 19.2646
lfemur 33.2793 -2.79729 -31.5089
ltibia 25.6733
lfoot 21.1832 12.5688
ltoes 32.7279
